<?xml version="1.0" encoding="UTF-8" standalone="no"?>
<svg
   xmlns:dc="http://purl.org/dc/elements/1.1/"
   xmlns:cc="http://creativecommons.org/ns#"
   xmlns:rdf="http://www.w3.org/1999/02/22-rdf-syntax-ns#"
   xmlns:svg="http://www.w3.org/2000/svg"
   xmlns="http://www.w3.org/2000/svg"
   viewBox="0 0 316 316"
   height="316"
   width="316"
   xml:space="preserve"
   id="svg2"
   version="1.1"><metadata
     id="metadata8"><rdf:RDF><cc:Work
         rdf:about=""><dc:format>image/svg+xml</dc:format><dc:type
           rdf:resource="http://purl.org/dc/dcmitype/StillImage" /></cc:Work></rdf:RDF></metadata><defs
     id="defs6"><clipPath
       id="clipPath20"
       clipPathUnits="userSpaceOnUse"><path
         style="clip-rule:evenodd"
         id="path18"
         d="M 126.43,231.7782 213.022,145.186 191.455,123.619 118.5,196.5746 41.42536,119.5 118.5,42.42536 191.456,115.382 213.174,93.664 126.43,6.918218 c -4.2958,-4.295767 -11.2606,-4.295767 -15.5564,0 L 6.221825,111.57 c -4.295767,4.2958 -4.295767,11.2606 0,15.5564 L 110.8736,231.7782 c 4.2958,4.2957 11.2606,4.2957 15.5564,0 z" /></clipPath><linearGradient
       id="linearGradient34"
       gradientTransform="matrix(1,0,0,-1,3,235)"
       gradientUnits="userSpaceOnUse"
       y2="1024"
       x2="0"
       y1="0"
       x1="0"><stop
         id="stop30"
         offset="0"
         style="stop-opacity:1;stop-color:#53cbf9" /><stop
         id="stop32"
         offset="1"
         style="stop-opacity:1;stop-color:#1069f6" /></linearGradient><linearGradient
       id="linearGradient44"
       spreadMethod="pad"
       gradientTransform="matrix(1,0,0,-1,3,235)"
       gradientUnits="userSpaceOnUse"
       y2="144.9743"
       x2="98.833382"
       y1="22.70421"
       x1="110.4294"><stop
         id="stop40"
         offset="0"
         style="stop-opacity:1;stop-color:#53cbf9" /><stop
         id="stop42"
         offset="1"
         style="stop-opacity:1;stop-color:#1069f6" /></linearGradient><clipPath
       id="clipPath54"
       clipPathUnits="userSpaceOnUse"><path
         style="clip-rule:evenodd"
         id="path52"
         d="m 92.04416,125.4497 20.50614,20.5061 c 2.7336,2.7337 7.1658,2.7337 9.8994,0 l 20.5061,-20.5061 c 2.7337,-2.7336 2.7337,-7.1658 0,-9.8994 L 122.4497,95.04416 c -2.7336,-2.73367 -7.1658,-2.73367 -9.8994,0 L 92.04416,115.5503 c -2.73367,2.7336 -2.73367,7.1658 0,9.8994 z" /></clipPath><linearGradient
       id="linearGradient68"
       gradientTransform="matrix(0.7071068,0.7071068,0.7071068,-0.7071068,87.09441,120.5)"
       gradientUnits="userSpaceOnUse"
       y2="1024"
       x2="0"
       y1="0"
       x1="0"><stop
         id="stop64"
         offset="0"
         style="stop-opacity:1;stop-color:#fc1a1c" /><stop
         id="stop66"
         offset="1"
         style="stop-opacity:1;stop-color:#fa0103" /></linearGradient><linearGradient
       id="linearGradient78"
       spreadMethod="pad"
       gradientTransform="matrix(0.7071068,0.7071068,0.7071068,-0.7071068,87.09441,120.5)"
       gradientUnits="userSpaceOnUse"
       y2="43"
       x2="21.5"
       y1="0"
       x1="21.5"><stop
         id="stop74"
         offset="0"
         style="stop-opacity:1;stop-color:#fc1a1c" /><stop
         id="stop76"
         offset="1"
         style="stop-opacity:1;stop-color:#fa0103" /></linearGradient><clipPath
       id="clipPath88"
       clipPathUnits="userSpaceOnUse"><path
         style="clip-rule:evenodd"
         id="path86"
         d="m 195.6418,119.65 21.7082,21.7082 13.93,-13.93 c 4.2958,-4.2958 4.2958,-11.2606 0,-15.5564 L 217.35,97.94182 v 0 z" /></clipPath><linearGradient
       id="linearGradient102"
       gradientTransform="matrix(0.7071068,0.7071068,0.7071068,-0.7071068,195.6418,119.65)"
       gradientUnits="userSpaceOnUse"
       y2="1024"
       x2="0"
       y1="0"
       x1="0"><stop
         id="stop98"
         offset="0"
         style="stop-opacity:1;stop-color:#fc1a1c" /><stop
         id="stop100"
         offset="1"
         style="stop-opacity:1;stop-color:#fa0103" /></linearGradient><linearGradient
       id="linearGradient112"
       spreadMethod="pad"
       gradientTransform="matrix(0.7071068,0.7071068,0.7071068,-0.7071068,195.6418,119.65)"
       gradientUnits="userSpaceOnUse"
       y2="30.700001"
       x2="15.35"
       y1="0"
       x1="15.35"><stop
         id="stop108"
         offset="0"
         style="stop-opacity:1;stop-color:#fc1a1c" /><stop
         id="stop110"
         offset="1"
         style="stop-opacity:1;stop-color:#fa0103" /></linearGradient></defs><g
     transform="matrix(1.3333333,0,0,-1.3333333,0,316)"
     id="g10"><g
       id="g12" /><g
       id="g14"><g
         clip-path="url(#clipPath20)"
         id="g16"><g
           id="g22"><g
             id="g28"><path
               id="path36"
               style="fill:url(#linearGradient34);stroke:none"
               d="M 0,0 H 237 V 237 H 0 Z" /></g><g
             id="g38"><path
               id="path46"
               style="fill:url(#linearGradient44);stroke:none"
               d="M 0,0 H 237 V 237 H 0 Z" /></g></g></g></g><g
       id="g48"><g
         clip-path="url(#clipPath54)"
         id="g50"><g
           id="g56"><g
             id="g62"><path
               id="path70"
               style="fill:url(#linearGradient68);stroke:none"
               d="M 0,0 H 237 V 237 H 0 Z" /></g><g
             id="g72"><path
               id="path80"
               style="fill:url(#linearGradient78);stroke:none"
               d="M 0,0 H 237 V 237 H 0 Z" /></g></g></g></g><g
       id="g82"><g
         clip-path="url(#clipPath88)"
         id="g84"><g
           id="g90"><g
             id="g96"><path
               id="path104"
               style="fill:url(#linearGradient102);stroke:none"
               d="M 0,0 H 237 V 237 H 0 Z" /></g><g
             id="g106"><path
               id="path114"
               style="fill:url(#linearGradient112);stroke:none"
               d="M 0,0 H 237 V 237 H 0 Z" /></g></g></g></g></g></svg>