<svg version="1.1" xmlns="http://www.w3.org/2000/svg" viewBox="0 0 450.19807084407444 453.6094353846944" width="450.19807084407444" height="453.6094353846944">
  <!-- svg-source:excalidraw -->
  
  <defs>
    <style>
      @font-face {
        font-family: "Virgil";
        src: url("https://excalidraw.com/Virgil.woff2");
      }
      @font-face {
        font-family: "Cascadia";
        src: url("https://excalidraw.com/Cascadia.woff2");
      }
    </style>
  </defs>
  <g stroke-linecap="round" transform="translate(323.10560876303316 180.12023825141816) rotate(135.37026957480745 47.75591783870004 50.31937738998428)"><path d="M5.7 6.28 C5.7 6.28, 5.7 6.28, 5.7 6.28 M5.7 6.28 C5.7 6.28, 5.7 6.28, 5.7 6.28 M0.19 18.72 C2.86 13.33, 7.92 7, 14.62 2.11 M0.19 18.72 C4.39 13.92, 9.7 6.9, 14.62 2.11 M0.58 24.36 C6.86 16.39, 9.69 11.96, 20.27 1.72 M0.58 24.36 C6.59 16.4, 12.88 9.09, 20.27 1.72 M0.32 30.76 C7.74 25.13, 11.35 18.97, 25.91 1.32 M0.32 30.76 C6.74 24.96, 12.58 17.34, 25.91 1.32 M0.06 37.15 C10.35 28.38, 15.28 19.76, 30.9 1.68 M0.06 37.15 C11.44 23.95, 24.37 11.02, 30.9 1.68 M0.46 42.8 C12.06 29.29, 25.57 12.41, 36.54 1.29 M0.46 42.8 C11.86 29.71, 21.49 17.34, 36.54 1.29 M0.19 49.19 C15.11 33.99, 29.24 13.96, 41.53 1.65 M0.19 49.19 C8.57 38.55, 17.12 29.55, 41.53 1.65 M-0.07 55.59 C10.06 43.12, 17.78 32.52, 46.51 2.01 M-0.07 55.59 C16.44 38.4, 30.88 20.99, 46.51 2.01 M0.33 61.24 C14.85 42.18, 29.4 27.27, 52.16 1.61 M0.33 61.24 C19.58 38.84, 38.26 17.24, 52.16 1.61 M0.07 67.63 C22.26 44.33, 41.18 22.67, 57.14 1.97 M0.07 67.63 C16.77 47.83, 35.07 28.33, 57.14 1.97 M-0.2 74.03 C22.46 46.48, 47.25 18.57, 62.79 1.58 M-0.2 74.03 C14.16 56.9, 31.14 37.64, 62.79 1.58 M1.51 78.16 C21.22 56.09, 37.01 35.75, 67.77 1.94 M1.51 78.16 C24.34 52, 45.22 27.65, 67.77 1.94 M2.56 83.05 C20.5 61.8, 37.2 44.9, 73.42 1.54 M2.56 83.05 C23.48 60.54, 43.37 35.57, 73.42 1.54 M3.61 87.94 C31.14 57.29, 57.7 25.14, 78.4 1.9 M3.61 87.94 C30.76 57.12, 58.94 24.27, 78.4 1.9 M4.66 92.83 C24.63 70.22, 47.09 46.38, 82.73 3.02 M4.66 92.83 C29.34 63.58, 56.02 33.66, 82.73 3.02 M7.68 95.45 C24.44 71.94, 46.37 50.56, 87.07 4.13 M7.68 95.45 C34.04 65.82, 59.58 35.76, 87.07 4.13 M10.7 98.08 C36.22 69.31, 65.13 37.15, 90.08 6.76 M10.7 98.08 C34.33 70.08, 58.24 43.47, 90.08 6.76 M14.38 99.95 C35.65 74.32, 60.19 49.72, 92.45 10.14 M14.38 99.95 C38.26 70.77, 62.66 42.86, 92.45 10.14 M18.71 101.06 C44.82 72.29, 70.29 40.78, 94.15 14.27 M18.71 101.06 C43.01 74.3, 65.38 46.04, 94.15 14.27 M24.35 100.67 C45.88 77.87, 65.39 51.41, 95.2 19.16 M24.35 100.67 C40 83.41, 55.1 67.02, 95.2 19.16 M29.34 101.03 C44.1 83.71, 63.38 65.15, 96.26 24.05 M29.34 101.03 C53.08 72.77, 76.18 45.82, 96.26 24.05 M34.98 100.63 C47.81 85.41, 61.84 69.82, 95.99 30.45 M34.98 100.63 C55.69 77.61, 75 55.92, 95.99 30.45 M39.97 100.99 C60.89 75.96, 84.63 51.9, 95.73 36.84 M39.97 100.99 C52.02 88.8, 62.53 74.52, 95.73 36.84 M44.95 101.35 C59.9 85.42, 70.7 71.04, 96.13 42.49 M44.95 101.35 C57.87 84.48, 71.93 70.12, 96.13 42.49 M50.6 100.96 C60.46 86.68, 73.63 75.43, 95.87 48.88 M50.6 100.96 C66.07 83.92, 81.38 65.61, 95.87 48.88 M55.58 101.32 C71.07 87.41, 81.27 71.47, 95.6 55.28 M55.58 101.32 C68.77 86.34, 81.95 70.64, 95.6 55.28 M61.23 100.92 C68.94 90.02, 76.51 80.47, 96 60.93 M61.23 100.92 C68.37 92.69, 75.85 82.72, 96 60.93 M66.21 101.28 C73.98 95.11, 78.78 85.62, 95.74 67.32 M66.21 101.28 C76.15 89.34, 85.88 78.8, 95.74 67.32 M71.86 100.89 C78.37 93.38, 83.7 87.19, 95.48 73.72 M71.86 100.89 C80.03 91.05, 89.85 80.76, 95.48 73.72 M78.81 98.99 C84.99 92.79, 91.66 85.7, 95.87 79.36 M78.81 98.99 C84.01 93.97, 89.47 87.82, 95.87 79.36 M85.11 97.84 C88.92 94.7, 90.23 89.72, 96.92 84.25 M85.11 97.84 C89.42 93.55, 93.64 89.41, 96.92 84.25" stroke="#f74657" stroke-width="0.5" fill="none"></path><path d="M23.88 0 M23.88 0 C43.63 -0.03, 61.63 0.2, 71.63 0 M23.88 0 C33.88 0.94, 44.08 -0.27, 71.63 0 M71.63 0 C85.82 -1.07, 93.9 8.94, 95.51 23.88 M71.63 0 C85.97 -0.11, 93.49 7.75, 95.51 23.88 M95.51 23.88 C93.92 41.81, 95.17 62.14, 95.51 76.76 M95.51 23.88 C95.52 34.96, 95.8 47.61, 95.51 76.76 M95.51 76.76 C94.21 93.04, 87.12 100.51, 71.63 100.64 M95.51 76.76 C96.7 93.74, 88.12 102.82, 71.63 100.64 M71.63 100.64 C54.65 101.86, 39.12 100.89, 23.88 100.64 M71.63 100.64 C57.96 101.21, 45.54 100.1, 23.88 100.64 M23.88 100.64 C8.99 100.16, 1.61 91.05, 0 76.76 M23.88 100.64 C9.19 101.15, 2.1 90.87, 0 76.76 M0 76.76 C-0.31 64.25, -1.2 54.6, 0 23.88 M0 76.76 C-0.48 59.55, 1.2 41.43, 0 23.88 M0 23.88 C0.64 6.34, 7.03 -1.14, 23.88 0 M0 23.88 C-1.43 7.9, 8.06 -1.53, 23.88 0" stroke="#c92a2a" stroke-width="1" fill="none"></path></g><g stroke-linecap="round" transform="translate(247.0249315722034 102.40428810337968) rotate(135.14539639627586 49.412376922124565 52.82012705468486)"><path d="M25.73 1.72 L77.99 1.84 L90.7 4.37 L94.61 11.24 L98.99 24.82 L96.98 85.4 L95.9 97.62 L89.85 100.25 L74.22 104.05 L18.13 106.13 L9.64 102.3 L1.95 97.83 L-0.81 80.13 L-0.04 18.42 L3.91 10.39 L8.03 1.57 L24.96 0.58" stroke="none" stroke-width="0" fill="#36abf6"></path><path d="M24.71 0 M24.71 0 C37.77 -1.14, 51.81 -1.09, 74.12 0 M24.71 0 C40.5 -0.79, 56.03 -1.14, 74.12 0 M74.12 0 C88.8 -0.99, 99.72 9.52, 98.82 24.71 M74.12 0 C91.93 -0.96, 98.09 6.53, 98.82 24.71 M98.82 24.71 C97.74 41.05, 100.99 53.19, 98.82 80.93 M98.82 24.71 C98.89 39.57, 99.12 52.86, 98.82 80.93 M98.82 80.93 C99.3 95.91, 92.37 104.45, 74.12 105.64 M98.82 80.93 C98.94 97.48, 90.78 106.88, 74.12 105.64 M74.12 105.64 C56.6 106.5, 40.5 103.39, 24.71 105.64 M74.12 105.64 C58.33 104.5, 43.57 105.57, 24.71 105.64 M24.71 105.64 C8.07 103.78, 0.12 96.9, 0 80.93 M24.71 105.64 C6.01 105.31, -0.3 98.09, 0 80.93 M0 80.93 C1.01 68, -1.35 57.99, 0 24.71 M0 80.93 C0.15 61.79, -0.59 43.07, 0 24.71 M0 24.71 C-1.95 6.57, 8.89 1.38, 24.71 0 M0 24.71 C-1.04 6.44, 7.93 -1.87, 24.71 0" stroke="#1864ab" stroke-width="1" fill="none"></path></g><g stroke-linecap="round" transform="translate(192.6563139271591 194.38264035688397) rotate(135.97731255496348 31.15958912589565 31.789157475261135)"><path d="M17.3 -1.92 L51.85 1.77 L57.13 1.45 L61.72 6.25 L62.44 14.12 L60.75 52.2 L61.76 58.17 L54.31 61.49 L45.15 62.79 L12.8 63.33 L6.22 59.86 L4.03 56.68 L-0.8 47.57 L0.48 9.2 L6.82 0.57 L13.67 0.26" stroke="none" stroke-width="0" fill="#f74657"></path><path d="M15.58 0 M15.58 0 C24.8 -0.95, 34.69 -0.68, 46.74 0 M15.58 0 C23.57 0.64, 29.65 0.98, 46.74 0 M46.74 0 C55.58 -1.79, 61.33 6.08, 62.32 15.58 M46.74 0 C58.61 1.35, 61.36 4.46, 62.32 15.58 M62.32 15.58 C62.83 21.32, 63.72 31.9, 62.32 48 M62.32 15.58 C62.4 23.85, 63.08 31.9, 62.32 48 M62.32 48 C62.85 58.86, 55.63 65.35, 46.74 63.58 M62.32 48 C60.95 58.5, 57.2 63.77, 46.74 63.58 M46.74 63.58 C34.11 63.28, 25.95 64.51, 15.58 63.58 M46.74 63.58 C39.94 63.27, 32.87 63.74, 15.58 63.58 M15.58 63.58 C5.41 63.42, -1.86 58.5, 0 48 M15.58 63.58 C4.61 61.35, -0.33 58.09, 0 48 M0 48 C-1.11 37.99, -0.44 24.95, 0 15.58 M0 48 C0.72 35.78, -0.56 22.89, 0 15.58 M0 15.58 C-0.98 3.25, 3.53 0.66, 15.58 0 M0 15.58 C1.58 4.16, 3.39 -0.3, 15.58 0" stroke="#84142d" stroke-width="1" fill="none"></path></g><g stroke-linecap="round" transform="translate(173.83564364567405 29.172093482343797) rotate(135.24052429130714 48.35163573773224 51.301327540342555)"><path d="M5.78 6.35 C5.78 6.35, 5.78 6.35, 5.78 6.35 M5.78 6.35 C5.78 6.35, 5.78 6.35, 5.78 6.35 M0.27 18.78 C5.09 15.28, 11.29 8.05, 14.7 2.18 M0.27 18.78 C4.6 13.57, 8.85 8.87, 14.7 2.18 M0.66 24.43 C5.26 15.34, 12.93 11.56, 20.35 1.79 M0.66 24.43 C6.18 17.14, 12.83 10.35, 20.35 1.79 M0.4 30.82 C8.38 23.81, 11.11 16.87, 25.99 1.39 M0.4 30.82 C10.15 19.23, 19.24 8.18, 25.99 1.39 M0.14 37.22 C10.06 24.45, 21.32 15.39, 30.98 1.75 M0.14 37.22 C12.62 23.96, 24.28 8.63, 30.98 1.75 M0.54 42.87 C6.71 35.08, 15.82 26.07, 36.62 1.36 M0.54 42.87 C9.31 33.21, 16.79 23.8, 36.62 1.36 M0.27 49.26 C13.36 31.69, 27.31 19.61, 41.61 1.72 M0.27 49.26 C15.3 32.93, 27.81 16.34, 41.61 1.72 M0.01 55.66 C14.29 38.87, 30.65 21.39, 47.25 1.32 M0.01 55.66 C15.52 36.92, 33.75 18.05, 47.25 1.32 M0.41 61.3 C9.72 48.32, 23.29 34.46, 52.24 1.68 M0.41 61.3 C16.59 42.29, 32.52 22.54, 52.24 1.68 M0.15 67.7 C19.8 47.09, 40.47 23.57, 57.22 2.04 M0.15 67.7 C20.56 44.49, 40.29 22.9, 57.22 2.04 M-0.12 74.1 C18.27 54.3, 32.25 37.45, 62.87 1.65 M-0.12 74.1 C13.72 57.37, 27.65 41.44, 62.87 1.65 M0.93 78.99 C21.26 54.45, 38.02 32.45, 67.85 2.01 M0.93 78.99 C17.37 60.99, 32.48 42.77, 67.85 2.01 M1.99 83.88 C28.35 52.07, 59.5 19.28, 73.5 1.61 M1.99 83.88 C16.5 65.81, 32.88 47.66, 73.5 1.61 M3.04 88.77 C26.67 61.62, 50.75 31.69, 79.14 1.22 M3.04 88.77 C29.94 58.99, 55.19 30.33, 79.14 1.22 M4.09 93.65 C33.3 60.2, 59.99 27.12, 83.47 2.33 M4.09 93.65 C35.8 57.01, 66.39 21.74, 83.47 2.33 M7.11 96.28 C24.38 77.46, 42.09 57.6, 87.8 3.45 M7.11 96.28 C36.1 61.54, 66.99 28.93, 87.8 3.45 M9.47 99.66 C33.92 71.26, 58.15 40.68, 90.16 6.83 M9.47 99.66 C33.89 70.2, 60.96 39.95, 90.16 6.83 M13.8 100.77 C31.09 80, 47.9 61.41, 93.18 9.45 M13.8 100.77 C42.95 67.81, 71.65 35.24, 93.18 9.45 M18.13 101.89 C37.35 79.76, 55.78 55.16, 96.2 12.08 M18.13 101.89 C40.33 73.82, 63.79 47.51, 96.2 12.08 M21.15 104.51 C40.67 80.3, 63.65 57.24, 97.25 16.96 M21.15 104.51 C45.77 76.53, 69.06 48.98, 97.25 16.96 M26.14 104.87 C53.19 73.42, 79.94 42.47, 98.3 21.85 M26.14 104.87 C47.96 79.86, 70.43 54.26, 98.3 21.85 M31.78 104.48 C47.91 85.87, 61.6 68.85, 99.35 26.74 M31.78 104.48 C55.39 75.25, 81.97 46.72, 99.35 26.74 M36.77 104.84 C57.06 77.7, 78.52 55.38, 99.75 32.38 M36.77 104.84 C51.14 87.88, 67.46 70.56, 99.75 32.38 M42.41 104.44 C58.34 86.87, 75.77 66.82, 99.49 38.78 M42.41 104.44 C57.19 87.26, 70.68 71.55, 99.49 38.78 M47.4 104.8 C67.07 82.97, 87.84 59.26, 99.23 45.18 M47.4 104.8 C62.55 88.38, 75.34 73.53, 99.23 45.18 M53.04 104.41 C68 89.49, 80.8 72.61, 99.62 50.82 M53.04 104.41 C70.83 84.11, 89.73 62.37, 99.62 50.82 M58.03 104.77 C73.41 84.37, 88.97 66.89, 99.36 57.22 M58.03 104.77 C70.71 90.25, 81.88 75.81, 99.36 57.22 M63.01 105.13 C72.67 97.29, 78.69 86.89, 99.1 63.62 M63.01 105.13 C70.29 97.25, 77.86 88.25, 99.1 63.62 M68.66 104.73 C78.14 96.12, 83.8 84.91, 99.49 69.26 M68.66 104.73 C77.6 93.62, 87.15 81.74, 99.49 69.26 M74.3 104.34 C81.41 96.91, 86.52 91.25, 99.23 75.66 M74.3 104.34 C79 98.07, 85.83 91.87, 99.23 75.66 M81.25 102.43 C86.85 94.66, 94 87.91, 97 84.32 M81.25 102.43 C85.11 98.33, 87.21 95.44, 97 84.32" stroke="#36abf6" stroke-width="0.5" fill="none"></path><path d="M24.18 0 M24.18 0 C34.27 1.42, 47.49 -0.67, 72.53 0 M24.18 0 C42.73 -0.23, 61.61 -0.63, 72.53 0 M72.53 0 C90.27 -0.85, 96.48 8.15, 96.7 24.18 M72.53 0 C86.63 1.1, 94.81 10.12, 96.7 24.18 M96.7 24.18 C94.8 38.03, 96.94 50.03, 96.7 78.43 M96.7 24.18 C97.24 44.17, 96.09 64.94, 96.7 78.43 M96.7 78.43 C97.47 93.39, 89.1 102.77, 72.53 102.6 M96.7 78.43 C95.09 96.09, 89.82 104.12, 72.53 102.6 M72.53 102.6 C60.27 101.72, 51.63 102.81, 24.18 102.6 M72.53 102.6 C53.5 103.3, 34.04 103.03, 24.18 102.6 M24.18 102.6 C7.68 100.85, 0.89 95.66, 0 78.43 M24.18 102.6 C9.42 102.41, 1.61 93.01, 0 78.43 M0 78.43 C-0.26 57.94, -0.03 38.63, 0 24.18 M0 78.43 C-0.74 66.33, 0.07 54.14, 0 24.18 M0 24.18 C-1.25 7.21, 7.28 1.34, 24.18 0 M0 24.18 C-0.12 8.32, 9.54 2.13, 24.18 0" stroke="#1864ab" stroke-width="1" fill="none"></path></g><g stroke-linecap="round" transform="translate(101.41551289763777 97.466190122852) rotate(135.14539639627586 49.412376922124565 52.82012705468486)"><path d="M26.35 -1.04 L80.77 -1.33 L89.55 4.6 L94.96 10.78 L98.19 26.52 L97.25 87.25 L93.95 94.34 L91.1 102.25 L75.66 105.76 L19.8 103.69 L10.76 100.67 L1.59 95.23 L1.68 81.87 L0.86 20.11 L4.61 10.53 L10.97 3.5 L25.49 -0.18" stroke="none" stroke-width="0" fill="#1ba2ff"></path><path d="M24.71 0 M24.71 0 C37 0.3, 47.09 -0.5, 74.12 0 M24.71 0 C41.74 -0.1, 57.88 -0.76, 74.12 0 M74.12 0 C92 0.54, 97.41 10.18, 98.82 24.71 M74.12 0 C89.91 2.25, 99.73 5.97, 98.82 24.71 M98.82 24.71 C100.77 37.26, 99.15 50.96, 98.82 80.93 M98.82 24.71 C98.39 46.44, 99.75 68.42, 98.82 80.93 M98.82 80.93 C97.84 99.05, 91.52 106.49, 74.12 105.64 M98.82 80.93 C98.73 98.53, 91.24 103.56, 74.12 105.64 M74.12 105.64 C58.19 104.05, 45.36 105.76, 24.71 105.64 M74.12 105.64 C62.69 106.76, 50.38 106.34, 24.71 105.64 M24.71 105.64 C10 103.75, 1.82 95.56, 0 80.93 M24.71 105.64 C8.06 107.3, 0.81 96.56, 0 80.93 M0 80.93 C0.68 60.32, 1.61 40.29, 0 24.71 M0 80.93 C1 58.71, -0.77 37.32, 0 24.71 M0 24.71 C1.42 7.16, 8.5 0.79, 24.71 0 M0 24.71 C1.91 7.07, 9.7 -1.83, 24.71 0" stroke="#1864ab" stroke-width="1" fill="none"></path></g><g stroke-linecap="round" transform="translate(31.861530501836 172.51483084661297) rotate(135.24052429130714 49.18888009590387 51.301327540342555)"><path d="M5.89 6.45 C5.89 6.45, 5.89 6.45, 5.89 6.45 M5.89 6.45 C5.89 6.45, 5.89 6.45, 5.89 6.45 M0.38 18.88 C6.29 13.7, 8.51 7.37, 14.81 2.28 M0.38 18.88 C2.94 15.79, 6.92 11.16, 14.81 2.28 M0.12 25.28 C10.2 15.65, 17.64 7.91, 21.11 1.13 M0.12 25.28 C4.14 21.23, 8.88 15.18, 21.11 1.13 M0.51 30.92 C10.71 20.23, 21.17 10.17, 26.1 1.49 M0.51 30.92 C11.27 18.89, 19.3 7.76, 26.1 1.49 M0.25 37.32 C12.92 25.5, 22.81 11.66, 31.74 1.09 M0.25 37.32 C6.28 30.59, 13.55 22.21, 31.74 1.09 M-0.01 43.72 C10.46 31.02, 24.54 17.53, 36.73 1.45 M-0.01 43.72 C12.46 27.94, 26.91 13.07, 36.73 1.45 M0.39 49.36 C14.37 32.94, 27.44 17.67, 41.72 1.81 M0.39 49.36 C11.94 36.39, 22.89 22.92, 41.72 1.81 M0.12 55.76 C8.89 42.74, 21.74 30.19, 47.36 1.42 M0.12 55.76 C14.72 38.82, 30.09 22.78, 47.36 1.42 M-0.14 62.16 C13.17 48.76, 24.63 34.25, 52.35 1.78 M-0.14 62.16 C13.76 46.96, 24.96 33.18, 52.35 1.78 M0.26 67.8 C22.65 46.22, 39.53 22.45, 57.99 1.38 M0.26 67.8 C23.92 42.2, 47.06 15.96, 57.99 1.38 M0 74.2 C15.19 57.19, 26.05 42.54, 62.98 1.74 M0 74.2 C12.15 57.45, 26.64 43.37, 62.98 1.74 M1.05 79.09 C22.47 56.89, 42.42 34.84, 68.62 1.35 M1.05 79.09 C21.58 55.88, 40.71 33.95, 68.62 1.35 M2.1 83.97 C24.98 57.94, 49.99 31.75, 73.61 1.71 M2.1 83.97 C20.01 62.67, 36.89 43.78, 73.61 1.71 M3.15 88.86 C27.17 65.94, 46.19 39.66, 79.91 0.56 M3.15 88.86 C24.01 63.85, 44.9 41.05, 79.91 0.56 M4.2 93.75 C30.19 63.82, 55.55 33.04, 84.24 1.68 M4.2 93.75 C25.14 70.5, 44.73 47.96, 84.24 1.68 M7.22 96.37 C29.17 73.51, 46.55 50.27, 87.91 3.55 M7.22 96.37 C31.64 69.47, 55.21 41.81, 87.91 3.55 M9.58 99.75 C32.54 75.08, 53.67 49, 91.59 5.41 M9.58 99.75 C33.03 74.86, 55.41 49.83, 91.59 5.41 M13.91 100.87 C41.95 69.9, 69.99 37.73, 93.95 8.79 M13.91 100.87 C40.71 69.47, 67.46 37.79, 93.95 8.79 M18.24 101.98 C35.17 83.53, 54.34 59.79, 96.97 11.42 M18.24 101.98 C36.44 80.57, 56.27 58.78, 96.97 11.42 M21.26 104.61 C43.8 81.64, 60.8 58, 98.02 16.31 M21.26 104.61 C43.75 78.84, 64.46 55.26, 98.02 16.31 M26.9 104.21 C49 81.14, 67.68 56.57, 99.07 21.19 M26.9 104.21 C42.06 86.13, 57.99 70.56, 99.07 21.19 M31.89 104.57 C52.57 78.29, 73.85 55.84, 100.12 26.08 M31.89 104.57 C58.15 74.62, 85.94 44.02, 100.12 26.08 M36.88 104.93 C59.34 81.59, 78.4 54.83, 99.86 32.48 M36.88 104.93 C55.84 82.72, 74.69 63.19, 99.86 32.48 M42.52 104.54 C61.25 83.45, 82.51 60.07, 100.25 38.12 M42.52 104.54 C57.41 88.82, 71.92 71.94, 100.25 38.12 M47.51 104.9 C66.27 84, 80.82 63.47, 99.99 44.52 M47.51 104.9 C66.2 84.5, 85.58 63.65, 99.99 44.52 M53.15 104.5 C68.98 83.66, 89.56 64.75, 99.73 50.92 M53.15 104.5 C63.11 93.09, 75.52 79.31, 99.73 50.92 M58.14 104.86 C73.33 86.82, 93.15 64.89, 100.13 56.56 M58.14 104.86 C70.3 89.73, 84.83 73.78, 100.13 56.56 M63.78 104.47 C69.88 94.24, 79.58 87.71, 99.86 62.96 M63.78 104.47 C71.41 96.11, 80.66 86.41, 99.86 62.96 M68.77 104.83 C79.64 92.23, 91.8 81.07, 99.6 69.36 M68.77 104.83 C76.75 96.5, 82.31 87.68, 99.6 69.36 M75.07 103.68 C79.86 94.75, 86.28 88.01, 100 75 M75.07 103.68 C81.67 94.06, 90.53 85.46, 100 75 M81.37 102.53 C87.03 96.07, 94.94 86.13, 99.74 81.4 M81.37 102.53 C87.01 97.77, 91.47 91.98, 99.74 81.4" stroke="#1181ff" stroke-width="0.5" fill="none"></path><path d="M24.59 0 M24.59 0 C36.8 0.95, 46.12 0.13, 73.78 0 M24.59 0 C36.4 -0.52, 49.57 0.93, 73.78 0 M73.78 0 C89.59 0.96, 99.75 7.59, 98.38 24.59 M73.78 0 C88.75 -1.7, 99.34 6.44, 98.38 24.59 M98.38 24.59 C100.47 39.05, 100.11 51.42, 98.38 78.01 M98.38 24.59 C99.52 41.6, 98.49 58.32, 98.38 78.01 M98.38 78.01 C97.68 95.92, 89.96 101.97, 73.78 102.6 M98.38 78.01 C100.28 95.22, 90.57 103.7, 73.78 102.6 M73.78 102.6 C54.97 102.09, 38.42 103.01, 24.59 102.6 M73.78 102.6 C58.24 102.23, 43.57 102.2, 24.59 102.6 M24.59 102.6 C8.52 101.21, -1.17 95.58, 0 78.01 M24.59 102.6 C9.34 100.54, -1.24 93.05, 0 78.01 M0 78.01 C-1 63.1, -0.31 45.08, 0 24.59 M0 78.01 C-0.49 60.7, 0.52 43.15, 0 24.59 M0 24.59 C0.03 6.43, 6.45 0.79, 24.59 0 M0 24.59 C1 10.23, 9.65 0.5, 24.59 0" stroke="#1864ab" stroke-width="1" fill="none"></path></g><g stroke-linecap="round" transform="translate(103.72739718060177 246.79309862894107) rotate(135.14539639627586 49.412376922124565 51.40412366117425)"><path d="M26.15 -0.08 L80.33 1.04 L89.49 5.07 L96.57 11.31 L98.52 25.25 L100.27 82.51 L93.64 92.05 L90.6 98.26 L74.39 103.6 L20.58 101.41 L10.92 97.74 L4.15 91.41 L-1.59 80.07 L-0.56 20.11 L3.74 11.35 L11.51 2.79 L25.59 1.88" stroke="none" stroke-width="0" fill="#0f77ff"></path><path d="M24.71 0 M24.71 0 C39.92 -1.07, 55.8 1.49, 74.12 0 M24.71 0 C36.58 0.33, 48.19 0.11, 74.12 0 M74.12 0 C89.91 -0.33, 99.19 8.89, 98.82 24.71 M74.12 0 C90.43 1.48, 96.9 9.72, 98.82 24.71 M98.82 24.71 C97.27 35.1, 99.99 45.66, 98.82 78.1 M98.82 24.71 C98.67 40.61, 99.5 57.72, 98.82 78.1 M98.82 78.1 C97.42 93.25, 90.11 103.66, 74.12 102.81 M98.82 78.1 C99.23 94.86, 90.25 101.59, 74.12 102.81 M74.12 102.81 C58.85 101.5, 46.66 104.14, 24.71 102.81 M74.12 102.81 C64.37 102.74, 53.36 104.26, 24.71 102.81 M24.71 102.81 C8.36 102.66, 1.5 96.1, 0 78.1 M24.71 102.81 C10.38 104.95, -1.76 96.52, 0 78.1 M0 78.1 C-1.95 63.05, -2.15 48.13, 0 24.71 M0 78.1 C0.49 59.93, 0.42 39.73, 0 24.71 M0 24.71 C-0.43 9.35, 8.85 1.12, 24.71 0 M0 24.71 C1.75 8.13, 9.07 -0.56, 24.71 0" stroke="#1864ab" stroke-width="1" fill="none"></path></g><g stroke-linecap="round" transform="translate(176.1376127690902 320.83841290009514) rotate(135.24052429130714 49.76653192961453 51.30132754034261)"><path d="M3.53 9.69 C3.53 9.69, 3.53 9.69, 3.53 9.69 M3.53 9.69 C3.53 9.69, 3.53 9.69, 3.53 9.69 M0.64 19.11 C3.67 16.84, 6.71 9.8, 12.45 5.52 M0.64 19.11 C5.52 15.02, 10.12 8.6, 12.45 5.52 M0.38 25.5 C6.23 19.86, 14.11 13.09, 18.75 4.37 M0.38 25.5 C7.71 17.91, 14.56 8, 18.75 4.37 M0.77 31.15 C10.7 19.32, 16.64 11.25, 26.36 1.71 M0.77 31.15 C10.27 20.66, 20.49 9.51, 26.36 1.71 M0.51 37.55 C11.88 25.53, 23.38 10.26, 32 1.32 M0.51 37.55 C11.81 24.22, 23.57 12, 32 1.32 M0.25 43.94 C15.04 30.51, 25.43 14.16, 36.99 1.68 M0.25 43.94 C14.29 28.94, 29.36 11.48, 36.99 1.68 M0.64 49.59 C16.16 33.43, 27.34 17.79, 42.63 1.28 M0.64 49.59 C15.13 32.42, 30.33 14.9, 42.63 1.28 M0.38 55.98 C11.37 46.74, 19.21 35.84, 47.62 1.64 M0.38 55.98 C14.42 41.91, 27.23 25.54, 47.62 1.64 M0.12 62.38 C13.95 46.92, 29.64 29.67, 52.61 2 M0.12 62.38 C13.96 46.21, 29.16 29.1, 52.61 2 M0.52 68.02 C19.84 45.04, 42.52 21.22, 58.25 1.61 M0.52 68.02 C21.5 43.51, 43.6 18.96, 58.25 1.61 M0.25 74.42 C18.3 52.9, 36.08 31.2, 63.24 1.97 M0.25 74.42 C14.72 57.01, 31.08 40.61, 63.24 1.97 M1.31 79.31 C17.31 59.47, 34.12 42.85, 68.88 1.58 M1.31 79.31 C18.95 59.84, 37.52 37.48, 68.88 1.58 M2.36 84.2 C24.84 61.98, 42.64 36.99, 73.87 1.94 M2.36 84.2 C25.86 56.68, 51.28 27.58, 73.87 1.94 M4.06 88.33 C26.15 64.1, 45.05 42.13, 80.82 0.03 M4.06 88.33 C31.83 55.65, 58.65 23.62, 80.82 0.03 M4.46 93.98 C34.2 58.01, 65.75 25.51, 84.5 1.9 M4.46 93.98 C30.39 63.99, 57.89 32.23, 84.5 1.9 M7.48 96.6 C26.66 77.87, 40.56 59.43, 88.83 3.02 M7.48 96.6 C37.3 62.02, 66.76 29.11, 88.83 3.02 M10.5 99.22 C39.53 67.99, 68.98 36.04, 91.85 5.64 M10.5 99.22 C35.8 71.27, 59.6 41.32, 91.85 5.64 M14.17 101.09 C30.96 79.55, 52.26 59.7, 94.87 8.26 M14.17 101.09 C43.83 65.51, 73.82 32.12, 94.87 8.26 M18.5 102.21 C44.59 69.58, 74.26 41.91, 97.88 10.89 M18.5 102.21 C34.24 83.01, 50.35 66.14, 97.88 10.89 M21.52 104.83 C40.44 81.5, 58.88 62.81, 98.93 15.78 M21.52 104.83 C39.64 84.85, 54.81 66.79, 98.93 15.78 M27.16 104.44 C55.68 71.61, 85.29 42.05, 99.99 20.67 M27.16 104.44 C50.63 77.36, 73.14 51.38, 99.99 20.67 M32.15 104.8 C57.53 77.53, 82.52 45.4, 101.04 25.55 M32.15 104.8 C52.86 81.01, 70.81 58.56, 101.04 25.55 M37.79 104.4 C56.14 82.53, 70.9 65.24, 100.77 31.95 M37.79 104.4 C50.7 89.07, 63.74 74.93, 100.77 31.95 M42.78 104.76 C55.04 91.15, 71.18 75.14, 100.51 38.35 M42.78 104.76 C59.8 84.96, 77.78 64.19, 100.51 38.35 M47.77 105.12 C62.3 85.86, 77.54 69.61, 100.91 43.99 M47.77 105.12 C67.76 82.56, 85.58 60.12, 100.91 43.99 M53.41 104.73 C71.45 84.48, 87.84 68.68, 100.65 50.39 M53.41 104.73 C71.44 85.05, 88.96 64.7, 100.65 50.39 M58.4 105.09 C71.77 91.61, 81.29 80.07, 100.38 56.79 M58.4 105.09 C72.95 89.13, 86.54 71.79, 100.38 56.79 M64.04 104.69 C74.3 91.18, 82.31 80.56, 100.78 62.43 M64.04 104.69 C75.6 90.91, 86.22 79.12, 100.78 62.43 M69.03 105.05 C79.19 92.83, 90.21 79.18, 100.52 68.83 M69.03 105.05 C76.37 96.87, 83.4 88.04, 100.52 68.83 M75.98 103.15 C80.94 96.14, 86.3 87.43, 100.26 75.23 M75.98 103.15 C84.73 93.68, 92.35 83.01, 100.26 75.23 M82.28 102 C84.74 98.86, 89.68 92.33, 100.65 80.87 M82.28 102 C86.47 98.48, 89.06 92.52, 100.65 80.87 M89.89 99.34 C90.84 95.07, 95.94 92.06, 101.7 85.76 M89.89 99.34 C94.65 94.41, 99.43 89.74, 101.7 85.76" stroke="#0c6cff" stroke-width="0.5" fill="none"></path><path d="M24.88 0 M24.88 0 C34.15 -1.45, 43.77 -1.74, 74.65 0 M24.88 0 C44.19 1.32, 61.46 0.77, 74.65 0 M74.65 0 C91.64 -1.44, 100.95 9.68, 99.53 24.88 M74.65 0 C89.71 -0.26, 97.79 9.13, 99.53 24.88 M99.53 24.88 C98.18 42.42, 98.35 56.49, 99.53 77.72 M99.53 24.88 C100.29 36.53, 100.06 47.4, 99.53 77.72 M99.53 77.72 C100.93 95.72, 89.84 103.03, 74.65 102.6 M99.53 77.72 C98.69 94.91, 90.58 104.21, 74.65 102.6 M74.65 102.6 C56.42 101.54, 35.55 100.45, 24.88 102.6 M74.65 102.6 C62.31 102.35, 49.94 102.59, 24.88 102.6 M24.88 102.6 C7.39 101.93, -0.18 92.97, 0 77.72 M24.88 102.6 C9.13 100.94, 0.11 94.16, 0 77.72 M0 77.72 C1.58 67.49, 0.05 56.14, 0 24.88 M0 77.72 C0.49 66.29, -1.14 54.54, 0 24.88 M0 24.88 C0.58 7.31, 9.71 -1.32, 24.88 0 M0 24.88 C0.94 7.38, 10.46 1.18, 24.88 0" stroke="#1864ab" stroke-width="1" fill="none"></path></g><g stroke-linecap="round" transform="translate(248.72326093589948 249.30273557484017) rotate(135.14539639627586 50.27249815039448 51.76036749036771)"><path d="M23.37 -1.53 L81.34 1.97 L90.63 2.63 L96.58 10.94 L101.16 26.26 L101.67 84.18 L97.74 93.21 L92.44 99.16 L75.47 104.77 L19.73 102.3 L9.74 99.36 L4.13 94.91 L1.07 77.3 L1.7 20.82 L5.28 8.8 L6.62 7.92 L13.78 0.25 L25.01 1.78" stroke="none" stroke-width="0" fill="#0c6cff"></path><path d="M25.14 0 M25.14 0 C44.52 -0.86, 66.66 -0.59, 75.41 0 M25.14 0 C37.87 0.68, 49.68 0.3, 75.41 0 M75.41 0 C91.4 0.86, 98.55 7.28, 100.54 25.14 M75.41 0 C90.47 1.4, 102.05 7.9, 100.54 25.14 M100.54 25.14 C99.04 45.55, 102.05 64.14, 100.54 78.38 M100.54 25.14 C100.51 38.79, 101.19 53.4, 100.54 78.38 M100.54 78.38 C101.7 94.54, 91.72 102.42, 75.41 103.52 M100.54 78.38 C99.47 94.78, 93.45 101.29, 75.41 103.52 M75.41 103.52 C55.61 103.41, 39.35 103.53, 25.14 103.52 M75.41 103.52 C56.29 103.57, 37.99 103.85, 25.14 103.52 M25.14 103.52 C8.17 104.29, 0.11 95.24, 0 78.38 M25.14 103.52 C7.78 103.11, -1.42 93.62, 0 78.38 M0 78.38 C-1.37 67.9, -0.29 52.74, 0 25.14 M0 78.38 C-0.55 65.56, 0.51 52.67, 0 25.14 M0 25.14 C-0.7 7.38, 7.17 1.74, 25.14 0 M0 25.14 C-0.01 6.51, 8.11 -0.5, 25.14 0" stroke="#1864ab" stroke-width="1" fill="none"></path></g></svg>